<svg width="32" height="32" viewBox="0 0 32 32" fill="none" xmlns="http://www.w3.org/2000/svg">
<rect width="32" height="32" fill="#0D0D0D"/>
<rect width="32" height="32" stroke="#0D0D0D"/>
<path d="M4 8C4 5.79086 5.79086 4 8 4H13C13.5523 4 14 4.44772 14 5V10C14 12.2091 12.2091 14 10 14H5C4.44772 14 4 13.5523 4 13V8Z" fill="#F2F2F2"/>
<path d="M4 19C4 18.4477 4.44772 18 5 18H10C12.2091 18 14 19.7909 14 22V27C14 27.5523 13.5523 28 13 28H8C5.79086 28 4 26.2091 4 24V19Z" fill="#F2F2F2"/>
<path d="M18 22C18 19.7909 19.7909 18 22 18H27C27.5523 18 28 18.4477 28 19V24C28 26.2091 26.2091 28 24 28H19C18.4477 28 18 27.5523 18 27V22Z" fill="#F2F2F2"/>
<path d="M18 5C18 4.44772 18.4477 4 19 4H24C26.2091 4 28 5.79086 28 8V13C28 13.5523 27.5523 14 27 14H22C19.7909 14 18 12.2091 18 10V5Z" fill="#F2F2F2"/>
</svg>
