<svg width="32" height="32" viewBox="0 0 32 32" fill="none" xmlns="http://www.w3.org/2000/svg">
<rect width="32" height="32" fill="#0D0D0D"/>
<path d="M3 20.9999C1.89543 20.9999 1 20.1045 1 18.9999L1 12.9999C1 11.8954 1.89543 10.9999 3 10.9999L11 10.9999V20.9999L3 20.9999Z" fill="#F2F2F2"/>
<path d="M11 10.9999V2.99994C11 1.89537 11.8954 0.99994 13 0.99994L19 0.99994C20.1045 0.99994 21 1.89537 21 2.99994V8.99994C21 10.1045 20.1045 10.9999 19 10.9999L11 10.9999Z" fill="#F2F2F2"/>
<path d="M13 30.9999C11.8954 30.9999 11 30.1045 11 28.9999V20.9999L19 20.9999C20.1045 20.9999 21 21.8954 21 22.9999V28.9999C21 30.1045 20.1045 30.9999 19 30.9999L13 30.9999Z" fill="#F2F2F2"/>
<path d="M11.0002 9.00029C11 10.1047 10.1047 11.0003 9.00024 11.0003L11.0002 11.0003V9.00029Z" fill="#F2F2F2"/>
<path d="M11.0002 23.0003C11.0002 21.8958 10.1048 21.0003 9.00024 21.0003L11.0002 21.0003V23.0003Z" fill="#F2F2F2"/>
<path d="M11.0002 19.9996C11.0002 20.5518 11.448 20.9996 12.0002 20.9996L11.0002 20.9996V19.9996Z" fill="#F2F2F2"/>
<path d="M11.0002 13.0004C11.0002 11.8959 11.8957 11.0004 13.0002 11.0004L11.0002 11.0004V13.0004ZM13.0002 21.0004C11.8958 21.0004 11.0005 20.1048 11.0002 19.0004V21.0004L13.0002 21.0004Z" fill="#F2F2F2"/>
</svg>
