<svg width="32" height="32" viewBox="0 0 32 32" fill="none" xmlns="http://www.w3.org/2000/svg">
<g clip-path="url(#clip0_2317_570)">
<rect width="32" height="32" rx="8" fill="#0D0D0D"/>
<path d="M0 0H14V10C14 12.2091 12.2091 14 10 14H0V0Z" fill="#F2F2F2"/>
<path d="M0 18H10C12.2091 18 14 19.7909 14 22V32H0V18Z" fill="#F2F2F2"/>
<path d="M18 22C18 19.7909 19.7909 18 22 18H32V32H18V22Z" fill="#F2F2F2"/>
<path d="M18 0H32V14H22C19.7909 14 18 12.2091 18 10V0Z" fill="#F2F2F2"/>
</g>
<rect x="2" y="2" width="28" height="28" rx="6" stroke="#0D0D0D" stroke-width="4"/>
<defs>
<clipPath id="clip0_2317_570">
<rect width="32" height="32" rx="8" fill="white"/>
</clipPath>
</defs>
</svg>
