<svg width="32" height="32" viewBox="0 0 32 32" fill="none" xmlns="http://www.w3.org/2000/svg">
<rect width="32" height="32" fill="#0D0D0D"/>
<path d="M11.1815 24C9.75798 24 8.70224 23.3704 8.01423 22.1111C7.33808 20.8519 7 18.9136 7 16.2963C7 13.679 7.34994 11.7407 8.04981 10.4815C8.76155 9.22222 9.85288 8.59259 11.3238 8.59259C12.1542 8.59259 12.86 8.79012 13.4412 9.18519C14.0225 9.58025 14.4732 10.1728 14.7935 10.963C15.1138 11.7407 15.3036 12.7161 15.3629 13.8889H13.548C13.3938 12.7161 13.1387 11.8704 12.7829 11.3519C12.4389 10.821 11.9525 10.5556 11.3238 10.5556C10.529 10.5556 9.94778 11.0123 9.58005 11.9259C9.21232 12.8272 9.02845 14.284 9.02845 16.2963C9.02845 18.3086 9.19452 19.7716 9.52667 20.6852C9.87067 21.5864 10.4223 22.037 11.1815 22.037C11.7746 22.037 12.2372 21.7963 12.5693 21.3148C12.9015 20.821 13.1447 20.037 13.2989 18.963H15.1138C15.0545 20.0617 14.8647 20.9877 14.5444 21.7407C14.236 22.4938 13.7971 23.0617 13.2277 23.4444C12.6702 23.8148 11.9881 24 11.1815 24Z" fill="white"/>
<path d="M21.5481 24C21.1092 24 20.7177 23.9012 20.3737 23.7037C20.0297 23.5062 19.7569 23.2222 19.5552 22.8519H19.0214V23.7037H17.0641V8H19.0214V13.4444H19.5552C19.7569 13.0741 20.0297 12.7901 20.3737 12.5926C20.7177 12.3951 21.1092 12.2963 21.5481 12.2963C22.2835 12.2963 22.9063 12.5247 23.4164 12.9815C23.9383 13.4383 24.3298 14.1049 24.5908 14.9815C24.8636 15.8457 25 16.9012 25 18.1481C25 19.3951 24.8636 20.4568 24.5908 21.3333C24.3298 22.1975 23.9383 22.858 23.4164 23.3148C22.9063 23.7716 22.2835 24 21.5481 24ZM21.0143 22.1111C21.7023 22.1111 22.2183 21.7778 22.5623 21.1111C22.9063 20.4444 23.0783 19.4568 23.0783 18.1481C23.0783 16.8395 22.9063 15.8519 22.5623 15.1852C22.2183 14.5185 21.7023 14.1852 21.0143 14.1852C20.3263 14.1852 19.8102 14.5185 19.4662 15.1852C19.1222 15.8519 18.9502 16.8395 18.9502 18.1481C18.9502 19.4568 19.1222 20.4444 19.4662 21.1111C19.8102 21.7778 20.3263 22.1111 21.0143 22.1111Z" fill="white"/>
</svg>
