<svg width="32" height="32" viewBox="0 0 32 32" fill="none" xmlns="http://www.w3.org/2000/svg">
<g clip-path="url(#clip0_2330_625)">
<path d="M0 4C0 1.79086 1.79086 0 4 0H13C13.5523 0 14 0.447715 14 1V10C14 12.2091 12.2091 14 10 14H1C0.447716 14 0 13.5523 0 13V4Z" fill="#F2F2F2"/>
<path d="M0 19C0 18.4477 0.447715 18 1 18H10C12.2091 18 14 19.7909 14 22V31C14 31.5523 13.5523 32 13 32H4C1.79086 32 0 30.2091 0 28V19Z" fill="#F2F2F2"/>
<path d="M18 22C18 19.7909 19.7909 18 22 18H31C31.5523 18 32 18.4477 32 19V28C32 30.2091 30.2091 32 28 32H19C18.4477 32 18 31.5523 18 31V22Z" fill="#F2F2F2"/>
<path d="M18 1C18 0.447716 18.4477 0 19 0H28C30.2091 0 32 1.79086 32 4V13C32 13.5523 31.5523 14 31 14H22C19.7909 14 18 12.2091 18 10V1Z" fill="#F2F2F2"/>
</g>
<defs>
<clipPath id="clip0_2330_625">
<rect width="32" height="32" fill="white"/>
</clipPath>
</defs>
</svg>
